<svg width="30" height="30" viewBox="0 0 30 30" fill="none" xmlns="http://www.w3.org/2000/svg">
<path d="M24.6875 0H5.3125C2.37849 0 0 2.43947 0 5.44872V24.5513C0 27.5605 2.37849 30 5.3125 30H24.6875C27.6215 30 30 27.5605 30 24.5513V5.44872C30 2.43947 27.6215 0 24.6875 0Z" fill="#001E36"/>
<path d="M6.75488 21.0368V7.84703C6.75488 7.75216 6.79613 7.70344 6.87988 7.70344C7.09363 7.70344 7.28988 7.70344 7.58488 7.69319C7.87988 7.68293 8.19863 7.67909 8.54113 7.67268L9.62738 7.65216C10.0099 7.64447 10.3899 7.64191 10.7649 7.64062C11.7849 7.64062 12.6436 7.77139 13.3411 8.03293C13.9703 8.25177 14.5441 8.61129 15.0211 9.08549C15.4259 9.49704 15.7386 9.99402 15.9374 10.5419C16.126 11.0762 16.2212 11.6404 16.2186 12.2086C16.2186 13.3086 15.9686 14.2167 15.4686 14.9329C14.9695 15.6508 14.2681 16.1949 13.4586 16.4919C12.6124 16.8163 11.6736 16.9252 10.6411 16.9252C10.3449 16.9252 10.1411 16.9252 10.0161 16.915C9.89113 16.9047 9.71488 16.9047 9.47363 16.9047V21.0227C9.47663 21.0441 9.47548 21.0658 9.47025 21.0868C9.46502 21.1077 9.45581 21.1274 9.44315 21.1447C9.43049 21.1619 9.41463 21.1765 9.39648 21.1874C9.37833 21.1984 9.35824 21.2056 9.33738 21.2086C9.32248 21.2111 9.30728 21.2111 9.29238 21.2086H6.89613C6.80238 21.2022 6.75488 21.147 6.75488 21.0368ZM9.47363 10.1804V14.4816C9.64738 14.4958 9.80863 14.5022 9.95613 14.5022H10.6199C11.1088 14.5007 11.5946 14.4216 12.0599 14.2675C12.4586 14.1456 12.8147 13.9089 13.0861 13.5855C13.347 13.2701 13.4778 12.8299 13.4786 12.265C13.4888 11.8655 13.3873 11.4713 13.1861 11.1291C12.9747 10.7986 12.6692 10.543 12.3111 10.397C11.8431 10.2104 11.343 10.1232 10.8411 10.1406C10.5199 10.1406 10.2349 10.1406 9.98613 10.1509C9.8149 10.1522 9.64385 10.1625 9.47363 10.1817V10.1804Z" fill="#31A8FF"/>
<path d="M23.9964 13.7C23.6181 13.501 23.2153 13.3552 22.7989 13.2667C22.34 13.1591 21.8709 13.1036 21.4002 13.1013C21.1471 13.0949 20.8944 13.1264 20.6502 13.1949C20.4938 13.2298 20.3546 13.3207 20.2577 13.4513C20.1913 13.5558 20.1561 13.6779 20.1564 13.8026C20.1612 13.9236 20.2052 14.0395 20.2814 14.1321C20.3988 14.2733 20.5424 14.3893 20.7039 14.4731C20.9908 14.6314 21.2862 14.7727 21.5889 14.8962C22.2644 15.1281 22.9099 15.4432 23.5114 15.8346C23.9207 16.1005 24.2595 16.466 24.4977 16.8987C24.6978 17.3081 24.7978 17.7613 24.7889 18.2192C24.8013 18.824 24.6329 19.4181 24.3064 19.9218C23.9566 20.4332 23.4712 20.8309 22.9077 21.068C22.296 21.3423 21.5414 21.4799 20.6439 21.4808C20.0728 21.4861 19.5027 21.4306 18.9427 21.3154C18.5019 21.2323 18.0728 21.0936 17.6652 20.9026C17.6211 20.8794 17.5844 20.8438 17.5594 20.8C17.5343 20.7562 17.522 20.7059 17.5239 20.6551V18.4269C17.5221 18.4051 17.5257 18.3832 17.5344 18.3632C17.5432 18.3432 17.5568 18.3259 17.5739 18.3128C17.5914 18.303 17.6114 18.2988 17.6313 18.3009C17.6511 18.303 17.6699 18.3111 17.6852 18.3244C18.1669 18.6153 18.6898 18.8276 19.2352 18.9539C19.7158 19.0768 20.2086 19.1426 20.7039 19.15C21.1727 19.15 21.5189 19.0872 21.7402 18.9641C21.8402 18.9171 21.9249 18.8413 21.9839 18.746C22.0429 18.6507 22.0737 18.5398 22.0727 18.4269C22.0727 18.2492 21.9718 18.0782 21.7702 17.9141C21.5685 17.75 21.1593 17.5504 20.5427 17.3154C19.9106 17.0898 19.3114 16.7771 18.7614 16.3859C18.3679 16.1055 18.0438 15.7345 17.8152 15.3026C17.6176 14.8959 17.5178 14.4466 17.5239 13.9923C17.5227 13.446 17.6689 12.91 17.9464 12.4436C18.2632 11.9303 18.7176 11.5217 19.2552 11.2667C19.8452 10.9641 20.5831 10.8128 21.4689 10.8128C21.9873 10.8085 22.5052 10.8466 23.0177 10.9269C23.389 10.9747 23.7521 11.0752 24.0964 11.2257C24.1245 11.2333 24.1505 11.2476 24.1722 11.2674C24.1939 11.2872 24.2108 11.312 24.2214 11.3398C24.2331 11.3897 24.2381 11.441 24.2364 11.4923V13.5782C24.2386 13.6032 24.2343 13.6282 24.2237 13.6508C24.2131 13.6734 24.1968 13.6926 24.1764 13.7064C24.1481 13.7204 24.117 13.7271 24.0856 13.726C24.0543 13.7249 24.0237 13.7159 23.9964 13.7Z" fill="#31A8FF"/>
</svg>
