<svg xmlns="http://www.w3.org/2000/svg" width="179" height="44" fill="none" viewBox="0 0 179 44"><rect width="179" height="44" fill="#0F3662" rx="7"/><g clip-path="url(#clip0_206_1043)"><g filter="url(#filter0_d_206_1043)"><path fill="#fff" d="M32 26L36 21H33V14H31V21H28L32 26Z"/></g><g filter="url(#filter1_d_206_1043)"><path fill="#fff" d="M40 28H24V21H22V28C22 29.103 22.897 30 24 30H40C41.103 30 42 29.103 42 28V21H40V28Z"/></g></g><g filter="url(#filter2_d_206_1043)"><path fill="#fff" d="M60.0845 28H56.3175V16.3636H60.2038C61.344 16.3636 62.3232 16.5966 63.1413 17.0625C63.9595 17.5246 64.5864 18.1894 65.022 19.0568C65.4614 19.9205 65.6811 20.9564 65.6811 22.1648C65.6811 23.3769 65.4595 24.4186 65.0163 25.2898C64.5769 26.161 63.9406 26.8314 63.1072 27.3011C62.2739 27.767 61.2663 28 60.0845 28ZM58.0732 26.4659H59.9879C60.8743 26.4659 61.611 26.2992 62.1982 25.9659C62.7853 25.6288 63.2247 25.142 63.5163 24.5057C63.808 23.8655 63.9538 23.0852 63.9538 22.1648C63.9538 21.2519 63.808 20.4773 63.5163 19.8409C63.2285 19.2045 62.7985 18.7216 62.2266 18.392C61.6546 18.0625 60.9444 17.8977 60.0959 17.8977H58.0732V26.4659ZM71.4041 28.1761C70.5859 28.1761 69.8719 27.9886 69.2621 27.6136C68.6522 27.2386 68.1787 26.714 67.8416 26.0398C67.5045 25.3655 67.3359 24.5777 67.3359 23.6761C67.3359 22.7708 67.5045 21.9792 67.8416 21.3011C68.1787 20.6231 68.6522 20.0966 69.2621 19.7216C69.8719 19.3466 70.5859 19.1591 71.4041 19.1591C72.2223 19.1591 72.9363 19.3466 73.5462 19.7216C74.156 20.0966 74.6295 20.6231 74.9666 21.3011C75.3037 21.9792 75.4723 22.7708 75.4723 23.6761C75.4723 24.5777 75.3037 25.3655 74.9666 26.0398C74.6295 26.714 74.156 27.2386 73.5462 27.6136C72.9363 27.9886 72.2223 28.1761 71.4041 28.1761ZM71.4098 26.75C71.9401 26.75 72.3795 26.6098 72.728 26.3295C73.0765 26.0492 73.334 25.6761 73.5007 25.2102C73.6712 24.7443 73.7564 24.2311 73.7564 23.6705C73.7564 23.1136 73.6712 22.6023 73.5007 22.1364C73.334 21.6667 73.0765 21.2898 72.728 21.0057C72.3795 20.7216 71.9401 20.5795 71.4098 20.5795C70.8757 20.5795 70.4325 20.7216 70.0803 21.0057C69.7318 21.2898 69.4723 21.6667 69.3018 22.1364C69.1352 22.6023 69.0518 23.1136 69.0518 23.6705C69.0518 24.2311 69.1352 24.7443 69.3018 25.2102C69.4723 25.6761 69.7318 26.0492 70.0803 26.3295C70.4325 26.6098 70.8757 26.75 71.4098 26.75ZM78.995 28L76.4268 19.2727H78.1825L79.8928 25.6818H79.978L81.6939 19.2727H83.4496L85.1541 25.6534H85.2393L86.9382 19.2727H88.6939L86.1314 28H84.3984L82.6257 21.6989H82.495L80.7223 28H78.995ZM92.005 22.8182V28H90.3061V19.2727H91.9368V20.6932H92.0447C92.2455 20.2311 92.5599 19.8598 92.9879 19.5795C93.4197 19.2992 93.9633 19.1591 94.6186 19.1591C95.2133 19.1591 95.7341 19.2841 96.1811 19.5341C96.6281 19.7803 96.9747 20.1477 97.2209 20.6364C97.4671 21.125 97.5902 21.7292 97.5902 22.4489V28H95.8913V22.6534C95.8913 22.0208 95.7266 21.5265 95.397 21.1705C95.0675 20.8106 94.6148 20.6307 94.0391 20.6307C93.6451 20.6307 93.2947 20.7159 92.9879 20.8864C92.6849 21.0568 92.4444 21.3068 92.2663 21.6364C92.0921 21.9621 92.005 22.3561 92.005 22.8182ZM99.8686 16.3636H101.567V25.6136C101.567 25.9886 101.615 26.2538 101.71 26.4091C101.808 26.5644 101.994 26.6383 102.266 26.6307C102.414 26.6269 102.524 26.6174 102.596 26.6023C102.672 26.5871 102.74 26.5701 102.8 26.5511L103.107 27.9091C102.99 27.9432 102.84 27.9754 102.658 28.0057C102.48 28.0398 102.278 28.0587 102.05 28.0625C101.316 28.0739 100.768 27.8996 100.408 27.5398C100.049 27.1799 99.8686 26.6553 99.8686 25.9659V16.3636ZM107.904 28.1761C107.086 28.1761 106.372 27.9886 105.762 27.6136C105.152 27.2386 104.679 26.714 104.342 26.0398C104.004 25.3655 103.836 24.5777 103.836 23.6761C103.836 22.7708 104.004 21.9792 104.342 21.3011C104.679 20.6231 105.152 20.0966 105.762 19.7216C106.372 19.3466 107.086 19.1591 107.904 19.1591C108.722 19.1591 109.436 19.3466 110.046 19.7216C110.656 20.0966 111.129 20.6231 111.467 21.3011C111.804 21.9792 111.972 22.7708 111.972 23.6761C111.972 24.5777 111.804 25.3655 111.467 26.0398C111.129 26.714 110.656 27.2386 110.046 27.6136C109.436 27.9886 108.722 28.1761 107.904 28.1761ZM107.91 26.75C108.44 26.75 108.879 26.6098 109.228 26.3295C109.576 26.0492 109.834 25.6761 110.001 25.2102C110.171 24.7443 110.256 24.2311 110.256 23.6705C110.256 23.1136 110.171 22.6023 110.001 22.1364C109.834 21.6667 109.576 21.2898 109.228 21.0057C108.879 20.7216 108.44 20.5795 107.91 20.5795C107.376 20.5795 106.933 20.7216 106.58 21.0057C106.232 21.2898 105.972 21.6667 105.802 22.1364C105.635 22.6023 105.552 23.1136 105.552 23.6705C105.552 24.2311 105.635 24.7443 105.802 25.2102C105.972 25.6761 106.232 26.0492 106.58 26.3295C106.933 26.6098 107.376 26.75 107.91 26.75ZM117.136 28.1705C116.431 28.1705 115.802 27.9905 115.249 27.6307C114.7 27.267 114.268 26.75 113.954 26.0795C113.643 25.4053 113.488 24.5966 113.488 23.6534C113.488 22.7102 113.645 21.9034 113.96 21.233C114.278 20.5625 114.713 20.0492 115.266 19.6932C115.819 19.3371 116.446 19.1591 117.147 19.1591C117.689 19.1591 118.124 19.25 118.454 19.4318C118.787 19.6098 119.045 19.8182 119.227 20.0568C119.412 20.2955 119.556 20.5057 119.658 20.6875H119.761V19.2727H121.46V28H119.8V26.642H119.658C119.556 26.8277 119.408 27.0398 119.215 27.2784C119.026 27.517 118.764 27.7254 118.431 27.9034C118.098 28.0814 117.666 28.1705 117.136 28.1705ZM117.511 26.7216C117.999 26.7216 118.412 26.5928 118.749 26.3352C119.09 26.0739 119.348 25.7121 119.522 25.25C119.7 24.7879 119.789 24.25 119.789 23.6364C119.789 23.0303 119.702 22.5 119.528 22.0455C119.353 21.5909 119.098 21.2367 118.761 20.983C118.424 20.7292 118.007 20.6023 117.511 20.6023C116.999 20.6023 116.573 20.7348 116.232 21C115.891 21.2652 115.634 21.6269 115.46 22.0852C115.289 22.5436 115.204 23.0606 115.204 23.6364C115.204 24.2197 115.291 24.7443 115.465 25.2102C115.639 25.6761 115.897 26.0455 116.238 26.3182C116.583 26.5871 117.007 26.7216 117.511 26.7216ZM127.151 28.1705C126.447 28.1705 125.818 27.9905 125.265 27.6307C124.716 27.267 124.284 26.75 123.969 26.0795C123.659 25.4053 123.504 24.5966 123.504 23.6534C123.504 22.7102 123.661 21.9034 123.975 21.233C124.293 20.5625 124.729 20.0492 125.282 19.6932C125.835 19.3371 126.462 19.1591 127.163 19.1591C127.704 19.1591 128.14 19.25 128.469 19.4318C128.803 19.6098 129.06 19.8182 129.242 20.0568C129.428 20.2955 129.572 20.5057 129.674 20.6875H129.776V16.3636H131.475V28H129.816V26.642H129.674C129.572 26.8277 129.424 27.0398 129.231 27.2784C129.041 27.517 128.78 27.7254 128.447 27.9034C128.113 28.0814 127.682 28.1705 127.151 28.1705ZM127.526 26.7216C128.015 26.7216 128.428 26.5928 128.765 26.3352C129.106 26.0739 129.363 25.7121 129.538 25.25C129.716 24.7879 129.805 24.25 129.805 23.6364C129.805 23.0303 129.718 22.5 129.543 22.0455C129.369 21.5909 129.113 21.2367 128.776 20.983C128.439 20.7292 128.022 20.6023 127.526 20.6023C127.015 20.6023 126.589 20.7348 126.248 21C125.907 21.2652 125.649 21.6269 125.475 22.0852C125.305 22.5436 125.219 23.0606 125.219 23.6364C125.219 24.2197 125.307 24.7443 125.481 25.2102C125.655 25.6761 125.913 26.0455 126.254 26.3182C126.598 26.5871 127.022 26.7216 127.526 26.7216ZM147.935 20.1477H146.163C146.094 19.7689 145.968 19.4356 145.782 19.1477C145.596 18.8598 145.369 18.6155 145.1 18.4148C144.831 18.214 144.53 18.0625 144.197 17.9602C143.867 17.858 143.517 17.8068 143.146 17.8068C142.475 17.8068 141.875 17.9754 141.344 18.3125C140.818 18.6496 140.401 19.1439 140.094 19.7955C139.791 20.447 139.64 21.2424 139.64 22.1818C139.64 23.1288 139.791 23.928 140.094 24.5795C140.401 25.2311 140.82 25.7235 141.35 26.0568C141.88 26.3902 142.477 26.5568 143.14 26.5568C143.507 26.5568 143.856 26.5076 144.185 26.4091C144.519 26.3068 144.82 26.1572 145.089 25.9602C145.358 25.7633 145.585 25.5227 145.771 25.2386C145.96 24.9508 146.091 24.6212 146.163 24.25L147.935 24.2557C147.841 24.8277 147.657 25.3542 147.384 25.8352C147.115 26.3125 146.769 26.7254 146.344 27.0739C145.924 27.4186 145.443 27.6856 144.901 27.875C144.36 28.0644 143.769 28.1591 143.129 28.1591C142.121 28.1591 141.223 27.9205 140.435 27.4432C139.647 26.9621 139.026 26.2746 138.572 25.3807C138.121 24.4867 137.896 23.4205 137.896 22.1818C137.896 20.9394 138.123 19.8731 138.577 18.983C139.032 18.089 139.653 17.4034 140.441 16.9261C141.229 16.4451 142.125 16.2045 143.129 16.2045C143.746 16.2045 144.322 16.2936 144.856 16.4716C145.394 16.6458 145.877 16.9034 146.305 17.2443C146.733 17.5814 147.087 17.9943 147.367 18.483C147.647 18.9678 147.837 19.5227 147.935 20.1477ZM151.053 16.3636L154.292 25.8409H154.423L157.661 16.3636H159.559L155.371 28H153.343L149.156 16.3636H151.053Z"/></g><defs><filter id="filter0_d_206_1043" width="12" height="16" x="27" y="13" color-interpolation-filters="sRGB" filterUnits="userSpaceOnUse"><feFlood flood-opacity="0" result="BackgroundImageFix"/><feColorMatrix in="SourceAlpha" result="hardAlpha" type="matrix" values="0 0 0 0 0 0 0 0 0 0 0 0 0 0 0 0 0 0 127 0"/><feOffset dx="1" dy="1"/><feGaussianBlur stdDeviation="1"/><feComposite in2="hardAlpha" operator="out"/><feColorMatrix type="matrix" values="0 0 0 0 0 0 0 0 0 0 0 0 0 0 0 0 0 0 0.25 0"/><feBlend in2="BackgroundImageFix" mode="normal" result="effect1_dropShadow_206_1043"/><feBlend in="SourceGraphic" in2="effect1_dropShadow_206_1043" mode="normal" result="shape"/></filter><filter id="filter1_d_206_1043" width="24" height="13" x="21" y="20" color-interpolation-filters="sRGB" filterUnits="userSpaceOnUse"><feFlood flood-opacity="0" result="BackgroundImageFix"/><feColorMatrix in="SourceAlpha" result="hardAlpha" type="matrix" values="0 0 0 0 0 0 0 0 0 0 0 0 0 0 0 0 0 0 127 0"/><feOffset dx="1" dy="1"/><feGaussianBlur stdDeviation="1"/><feComposite in2="hardAlpha" operator="out"/><feColorMatrix type="matrix" values="0 0 0 0 0 0 0 0 0 0 0 0 0 0 0 0 0 0 0.25 0"/><feBlend in2="BackgroundImageFix" mode="normal" result="effect1_dropShadow_206_1043"/><feBlend in="SourceGraphic" in2="effect1_dropShadow_206_1043" mode="normal" result="shape"/></filter><filter id="filter2_d_206_1043" width="107.241" height="15.972" x="55.317" y="15.204" color-interpolation-filters="sRGB" filterUnits="userSpaceOnUse"><feFlood flood-opacity="0" result="BackgroundImageFix"/><feColorMatrix in="SourceAlpha" result="hardAlpha" type="matrix" values="0 0 0 0 0 0 0 0 0 0 0 0 0 0 0 0 0 0 127 0"/><feOffset dx="1" dy="1"/><feGaussianBlur stdDeviation="1"/><feComposite in2="hardAlpha" operator="out"/><feColorMatrix type="matrix" values="0 0 0 0 0 0 0 0 0 0 0 0 0 0 0 0 0 0 0.25 0"/><feBlend in2="BackgroundImageFix" mode="normal" result="effect1_dropShadow_206_1043"/><feBlend in="SourceGraphic" in2="effect1_dropShadow_206_1043" mode="normal" result="shape"/></filter><clipPath id="clip0_206_1043"><rect width="24" height="24" fill="#fff" transform="translate(20 10)"/></clipPath></defs></svg>