<svg xmlns="http://www.w3.org/2000/svg" width="30" height="30" fill="none" viewBox="0 0 30 30"><path fill="#0ACF83" d="M10.125 30C12.816 30 15 27.76 15 25V20H10.125C7.434 20 5.25 22.24 5.25 25C5.25 27.76 7.434 30 10.125 30Z"/><path fill="#A259FF" d="M5.25 15C5.25 12.24 7.434 10 10.125 10H15V20H10.125C7.434 20 5.25 17.76 5.25 15Z"/><path fill="#F24E1E" d="M5.25 5C5.25 2.24 7.434 0 10.125 0H15V10H10.125C7.434 10 5.25 7.76 5.25 5Z"/><path fill="#FF7262" d="M15 0H19.875C22.566 0 24.75 2.24 24.75 5C24.75 7.76 22.566 10 19.875 10H15V0Z"/><path fill="#1ABCFE" d="M24.75 15C24.75 17.76 22.566 20 19.875 20C17.184 20 15 17.76 15 15C15 12.24 17.184 10 19.875 10C22.566 10 24.75 12.24 24.75 15Z"/></svg>