<svg width="30" height="30" viewBox="0 0 30 30" fill="none" xmlns="http://www.w3.org/2000/svg">
<path d="M24.6875 0H5.3125C2.37849 0 0 2.43947 0 5.44872V24.5513C0 27.5605 2.37849 30 5.3125 30H24.6875C27.6215 30 30 27.5605 30 24.5513V5.44872C30 2.43947 27.6215 0 24.6875 0Z" fill="#470137"/>
<path d="M15.7713 7.89197L12.0275 14.2253L16.0275 20.9548C16.0533 21.0015 16.0605 21.0566 16.0475 21.1086C16.0338 21.1574 15.9875 21.1266 15.9063 21.1407H13.0538C12.8525 21.1407 12.7113 21.133 12.6313 20.9958C12.3629 20.4582 12.0946 19.9249 11.8263 19.3958C11.5579 18.8667 11.2729 18.3266 10.9713 17.7753C10.6688 17.2249 10.37 16.6693 10.075 16.1086H10.055C9.78667 16.6591 9.50833 17.2095 9.22 17.7599C8.93167 18.3103 8.64667 18.8574 8.365 19.4009C8.08417 19.9445 7.79583 20.4847 7.5 21.0214C7.44625 21.1497 7.35125 21.1573 7.2175 21.1573H4.4675C4.41375 21.1573 4.38375 21.1791 4.37625 21.124C4.36898 21.074 4.37964 21.023 4.40625 20.9804L8.29 14.442L4.5 7.86761C4.46 7.81248 4.4525 7.76761 4.48 7.7394C4.49544 7.72138 4.5148 7.70734 4.53652 7.69843C4.55824 7.68952 4.5817 7.68598 4.605 7.68812H7.4425C7.50438 7.68474 7.56623 7.69525 7.62375 7.71889C7.67366 7.74621 7.71651 7.78532 7.74875 7.83299C7.98958 8.38256 8.25792 8.93299 8.55375 9.48427C8.84958 10.0356 9.14792 10.5791 9.44875 11.115C9.75125 11.6509 10.0296 12.1945 10.2838 12.7458H10.305C10.5725 12.1817 10.8442 11.6313 11.12 11.0945C11.3958 10.5578 11.6775 10.0176 11.965 9.47402C12.2525 8.93043 12.5308 8.39026 12.8 7.85351C12.8159 7.80465 12.8434 7.7606 12.88 7.7253C12.9299 7.69988 12.9858 7.68923 13.0413 7.69453H15.6775C15.6923 7.69072 15.7076 7.68995 15.7227 7.69227C15.7378 7.6946 15.7523 7.69998 15.7653 7.70809C15.7783 7.7162 15.7896 7.72688 15.7986 7.73952C15.8076 7.75216 15.814 7.7665 15.8175 7.78171C15.8224 7.80332 15.8213 7.82588 15.8145 7.84692C15.8076 7.86796 15.7953 7.88665 15.7788 7.90094L15.7713 7.89197Z" fill="#FF61F6"/>
<path d="M21.5462 21.4091C20.6201 21.4232 19.7025 21.2257 18.86 20.8309C18.0773 20.4572 17.4235 19.8488 16.985 19.086C16.5275 18.3091 16.2991 17.3356 16.3 16.1655C16.2924 15.2181 16.5287 14.2855 16.985 13.4617C17.4528 12.6242 18.1406 11.9383 18.97 11.4822C19.8425 10.9856 20.8958 10.7377 22.13 10.7386C22.1975 10.7386 22.2837 10.7386 22.3912 10.7489L22.7737 10.7796V6.71296C22.7737 6.6168 22.815 6.56808 22.8987 6.56808H25.4337C25.4479 6.56552 25.4624 6.5659 25.4764 6.56918C25.4904 6.57246 25.5036 6.57859 25.5152 6.58719C25.5269 6.5958 25.5367 6.6067 25.5442 6.61927C25.5517 6.63185 25.5566 6.64583 25.5587 6.66039C25.5599 6.67061 25.5599 6.68094 25.5587 6.69116V18.8912C25.5587 19.1245 25.5687 19.3796 25.5887 19.6604C25.6087 19.9412 25.6262 20.1835 25.64 20.404C25.6418 20.4473 25.6309 20.4902 25.6086 20.527C25.5863 20.5638 25.5536 20.5929 25.515 20.6104C24.8594 20.8889 24.1768 21.0951 23.4787 21.2258C22.8411 21.3451 22.1944 21.4065 21.5462 21.4091ZM22.7737 18.845V13.204C22.6653 13.1733 22.5545 13.1527 22.4425 13.1424C22.3054 13.1279 22.1677 13.1211 22.03 13.1219C21.5421 13.1205 21.0608 13.2369 20.625 13.4617C20.1982 13.679 19.8338 14.0064 19.5675 14.4117C19.2925 14.8245 19.155 15.3681 19.155 16.0424C19.1454 16.4922 19.217 16.9399 19.3662 17.363C19.4882 17.704 19.6805 18.0141 19.93 18.2719C20.1695 18.5072 20.4586 18.6827 20.775 18.7848C21.1097 18.8959 21.4595 18.9517 21.8112 18.9501C22 18.9501 22.1737 18.9424 22.335 18.9296C22.4836 18.9186 22.6306 18.8915 22.7737 18.8489V18.845Z" fill="#FF61F6"/>
</svg>
