<svg width="30" height="30" viewBox="0 0 30 30" fill="none" xmlns="http://www.w3.org/2000/svg">
<path d="M5.3125 2.418e-06H24.6875C25.3853 -0.000672159 26.0764 0.139806 26.7213 0.41339C27.3661 0.686975 27.952 1.08829 28.4455 1.59439C28.9389 2.10048 29.3302 2.70142 29.597 3.36279C29.8637 4.02416 30.0007 4.73299 30 5.44872V24.5513C30.0007 25.267 29.8637 25.9758 29.597 26.6372C29.3302 27.2986 28.9389 27.8995 28.4455 28.4056C27.952 28.9117 27.3661 29.313 26.7213 29.5866C26.0764 29.8602 25.3853 30.0007 24.6875 30H5.3125C4.61467 30.0007 3.92356 29.8602 3.27872 29.5866C2.63388 29.313 2.04797 28.9117 1.55453 28.4056C1.06109 27.8995 0.669801 27.2986 0.403056 26.6372C0.13631 25.9758 -0.000655355 25.267 2.35755e-06 24.5513V5.44872C-0.000655355 4.73299 0.13631 4.02416 0.403056 3.36279C0.669801 2.70142 1.06109 2.10048 1.55453 1.59439C2.04797 1.08829 2.63388 0.686975 3.27872 0.41339C3.92356 0.139806 4.61467 -0.000672159 5.3125 2.418e-06Z" fill="#00005B"/>
<path d="M7.12793 21.0382V7.84588C7.12793 7.75614 7.16543 7.70486 7.25293 7.70486C7.46543 7.70486 7.66543 7.70485 7.95293 7.69203C8.24043 7.67921 8.56543 7.67921 8.90293 7.66639C9.24043 7.65357 9.60293 7.65358 9.99043 7.64075C10.3779 7.62793 10.7529 7.62793 11.1279 7.62793C12.1529 7.62793 13.0029 7.75614 13.7029 8.02537C14.3304 8.24393 14.9026 8.60304 15.3779 9.07665C15.7807 9.49111 16.0919 9.98956 16.2904 10.5382C16.4796 11.0725 16.5769 11.6364 16.5779 12.2049C16.5779 13.3074 16.3279 14.2177 15.8279 14.9356C15.3256 15.6526 14.6243 16.1977 13.8154 16.4997C12.9654 16.8202 12.0279 16.9356 11.0029 16.9356C10.7029 16.9356 10.5029 16.9356 10.3779 16.9228C10.2529 16.91 10.0779 16.91 9.84043 16.91V21.0254C9.84322 21.0465 9.84185 21.0679 9.8364 21.0885C9.83095 21.109 9.82154 21.1282 9.80871 21.145C9.79589 21.1617 9.77992 21.1756 9.76175 21.1859C9.74358 21.1962 9.72357 21.2026 9.70293 21.2049H7.27793C7.17543 21.2049 7.12793 21.1536 7.12793 21.0382ZM9.85293 10.1792V14.4869C10.0279 14.4997 10.1904 14.5125 10.3404 14.5125H11.0029C11.4909 14.5131 11.976 14.4353 12.4404 14.2818C12.8389 14.1616 13.1949 13.9256 13.4654 13.6023C13.7279 13.2818 13.8529 12.8459 13.8529 12.2818C13.8647 11.8811 13.765 11.4854 13.5654 11.1408C13.357 10.8079 13.0505 10.5519 12.6904 10.41C12.2212 10.2215 11.7191 10.1342 11.2154 10.1536C10.8904 10.1536 10.6029 10.1536 10.3654 10.1664C10.1946 10.1549 10.023 10.1592 9.85293 10.1792Z" fill="#9999FF"/>
<path d="M18.3251 10.9235H20.5126C20.5718 10.925 20.6291 10.9456 20.6762 10.9824C20.7234 11.0193 20.758 11.0704 20.7751 11.1286C20.8132 11.2318 20.8384 11.3395 20.8501 11.4491C20.8751 11.5773 20.9001 11.7184 20.9126 11.8466C20.9251 11.9748 20.9376 12.1414 20.9376 12.3081C21.3129 11.8587 21.7664 11.4848 22.2751 11.2055C22.8561 10.8745 23.5104 10.7023 24.1751 10.7055C24.1956 10.7027 24.2165 10.7041 24.2366 10.7097C24.2566 10.7153 24.2753 10.7249 24.2917 10.7381C24.308 10.7512 24.3216 10.7676 24.3316 10.7862C24.3416 10.8049 24.3479 10.8254 24.3501 10.8466V13.3979C24.3501 13.5004 24.2876 13.5389 24.1501 13.5389C23.6966 13.5237 23.2431 13.5667 22.8001 13.6671C22.439 13.7435 22.0869 13.8596 21.7501 14.0132C21.5082 14.1251 21.2913 14.2865 21.1126 14.4876V21.0261C21.1126 21.1543 21.0626 21.2055 20.9501 21.2055H18.4876C18.4645 21.2095 18.4409 21.2087 18.4182 21.203C18.3954 21.1974 18.3741 21.187 18.3554 21.1726C18.3367 21.1582 18.321 21.1401 18.3094 21.1193C18.2977 21.0985 18.2903 21.0755 18.2876 21.0517V13.8979C18.2876 13.5902 18.2876 13.2697 18.2751 12.9363C18.2626 12.603 18.2626 12.2697 18.2501 11.9363C18.2501 11.6414 18.2251 11.3594 18.2001 11.0645C18.1967 11.0494 18.1964 11.0337 18.199 11.0184C18.2016 11.0031 18.2071 10.9885 18.2152 10.9754C18.2234 10.9623 18.2339 10.9509 18.2464 10.942C18.2588 10.9331 18.2728 10.9268 18.2876 10.9235C18.2876 10.9107 18.3126 10.9107 18.3251 10.9235Z" fill="#9999FF"/>
</svg>
