<svg width="30" height="30" viewBox="0 0 30 30" fill="none" xmlns="http://www.w3.org/2000/svg">
<path d="M24.6875 0H5.3125C2.37849 0 0 2.43947 0 5.44872V24.5513C0 27.5605 2.37849 30 5.3125 30H24.6875C27.6215 30 30 27.5605 30 24.5513V5.44872C30 2.43947 27.6215 0 24.6875 0Z" fill="#37244B"/>
<path d="M12.0524 17.9483H7.40243L6.45744 20.9675C6.44445 21.0224 6.4133 21.0709 6.3693 21.1048C6.32529 21.1387 6.27117 21.1559 6.21619 21.1534H3.86119C3.72619 21.1534 3.67994 21.0778 3.71994 20.9265L7.74494 9.08548C7.78494 8.95728 7.82619 8.84061 7.86994 8.68292C7.92278 8.40758 7.94956 8.12764 7.94993 7.84702C7.9453 7.81336 7.95389 7.77919 7.97381 7.75202C7.99374 7.72485 8.02337 7.70691 8.05619 7.70215H11.2912C11.3854 7.70215 11.4391 7.73676 11.4524 7.806L16.0199 20.947C16.0599 21.0842 16.0199 21.1534 15.8949 21.1534H13.2799C13.2349 21.1588 13.1895 21.1469 13.1524 21.1202C13.1154 21.0935 13.0891 21.0538 13.0787 21.0086L12.0524 17.9483ZM8.12744 15.4021H11.3074C11.2274 15.1265 11.1324 14.8175 11.0249 14.4739C10.9174 14.1304 10.8037 13.7611 10.6837 13.3688C10.5637 12.9765 10.4424 12.5842 10.3212 12.1919C10.1999 11.7996 10.0899 11.4227 9.98868 11.0573C9.88743 10.6919 9.79744 10.3586 9.71744 10.056H9.69744C9.58376 10.6142 9.44275 11.1662 9.27494 11.7098C9.0866 12.3286 8.89535 12.9615 8.70119 13.6086C8.50702 14.2556 8.31577 14.8534 8.12744 15.4021Z" fill="#D8A1FF"/>
<path d="M23.4221 16.7733H19.4583C19.5064 17.1756 19.6363 17.563 19.8396 17.9105C20.0655 18.2529 20.3839 18.5203 20.7558 18.6798C21.2604 18.9037 21.8061 19.0135 22.3558 19.0016C22.7917 18.9927 23.226 18.9438 23.6533 18.8554C24.0358 18.8024 24.4106 18.7021 24.7696 18.5567C24.8371 18.5011 24.8708 18.5357 24.8708 18.6605V20.6208C24.8735 20.6742 24.8632 20.7275 24.8408 20.7759C24.8173 20.8131 24.7861 20.8446 24.7496 20.8682C24.3507 21.0507 23.9306 21.1799 23.4996 21.2528C22.9183 21.3659 22.3274 21.4183 21.7358 21.4092C20.7833 21.4092 19.985 21.258 19.3408 20.9554C18.7323 20.6801 18.1948 20.2631 17.7708 19.7374C17.3754 19.242 17.0812 18.6699 16.9058 18.0554C16.7317 17.4489 16.6437 16.8197 16.6446 16.1874C16.642 15.497 16.7471 14.8105 16.9558 14.1541C17.1572 13.5137 17.4748 12.9182 17.8921 12.399C18.3038 11.8869 18.8185 11.4719 19.4008 11.1823C19.9908 10.8862 20.6896 10.7798 21.4946 10.7798C22.1619 10.7628 22.8247 10.8967 23.4358 11.1721C23.9507 11.3979 24.4036 11.7501 24.7546 12.1977C25.086 12.6343 25.3398 13.1273 25.5046 13.6541C25.6588 14.1599 25.7368 14.687 25.7358 15.2169C25.7358 15.5195 25.7258 15.7947 25.7058 16.0426C25.6846 16.29 25.6683 16.4695 25.6546 16.5798C25.6494 16.6253 25.628 16.6673 25.5946 16.6978C25.5612 16.7283 25.5181 16.7451 25.4733 16.7451C25.39 16.7451 25.2525 16.7554 25.0608 16.7759C24.8671 16.7964 24.6246 16.8105 24.3371 16.8169C24.0496 16.8233 23.7446 16.7733 23.4221 16.7733ZM19.4583 14.8926H22.0946C22.4158 14.8926 22.6546 14.8926 22.8083 14.8823C22.9118 14.8722 23.0117 14.8384 23.1008 14.7836V14.6554C23.0963 14.4941 23.0689 14.3343 23.0196 14.181C22.9112 13.8298 22.6936 13.5246 22.4002 13.3121C22.1068 13.0996 21.7536 12.9914 21.3946 13.0041C21.0558 12.9841 20.7185 13.0655 20.424 13.2385C20.1295 13.4115 19.8904 13.6686 19.7358 13.9785C19.596 14.2659 19.5022 14.5745 19.4583 14.8926Z" fill="#D8A1FF"/>
</svg>
