<svg width="40" height="40" viewBox="0 0 40 40" fill="none" xmlns="http://www.w3.org/2000/svg">
<g clip-path="url(#clip0_206_1040)">
<path d="M36.9842 1.53809H3.01501C2.19809 1.53809 1.53809 2.19809 1.53809 3.01501V36.9842C1.53809 37.8012 2.19809 38.4612 3.01501 38.4612H36.9842C37.8012 38.4612 38.4612 37.8012 38.4612 36.9842V3.01501C38.4612 2.19809 37.8012 1.53809 36.9842 1.53809ZM23.9919 12.5642H30.3796V14.1196H23.9919V12.5642ZM19.9996 25.3904C19.7009 25.9575 19.2742 26.4474 18.7535 26.8212C18.2089 27.1996 17.6042 27.4766 16.9627 27.6381C16.2915 27.8179 15.5991 27.9064 14.9042 27.9012H7.26116V12.1581H14.6919C15.4442 12.1581 16.1273 12.2273 16.7504 12.3565C17.3689 12.4858 17.895 12.7073 18.3381 13.0073C18.7765 13.3073 19.1227 13.7089 19.3673 14.2073C19.6073 14.7012 19.7319 15.3196 19.7319 16.0535C19.7319 16.8473 19.5519 17.5027 19.1919 18.0335C18.8273 18.5642 18.3012 18.9935 17.5858 19.3304C18.5596 19.6073 19.275 20.1012 19.7458 20.7935C20.2258 21.495 20.4612 22.335 20.4612 23.3227C20.4612 24.1258 20.3089 24.8135 19.9996 25.3904ZM32.8673 22.9535H24.6335C24.6335 23.8489 24.9427 24.7073 25.4089 25.1689C25.8796 25.6258 26.5535 25.8566 27.435 25.8566C28.0719 25.8566 28.6119 25.695 29.0735 25.3766C29.5304 25.0581 29.8073 24.7212 29.9089 24.3704H32.6689C32.2258 25.7412 31.5519 26.7196 30.6381 27.3104C29.7335 27.9012 28.6258 28.1965 27.3381 28.1965C26.4381 28.1965 25.6304 28.0489 24.9058 27.7673C24.2089 27.495 23.5812 27.0796 23.0642 26.5442C22.5546 25.9944 22.1606 25.3478 21.9058 24.6427C21.6242 23.8627 21.4858 23.0412 21.495 22.215C21.495 21.3612 21.6381 20.5673 21.915 19.8289C22.4458 18.3935 23.5489 17.2442 24.9566 16.6489C25.7089 16.335 26.5166 16.1781 27.3335 16.1873C28.3027 16.1873 29.1427 16.3719 29.8719 16.7504C30.574 17.1118 31.1835 17.6297 31.6535 18.2642C32.1196 18.8965 32.4473 19.6165 32.655 20.4289C32.8535 21.2273 32.9227 22.0673 32.8673 22.9535ZM27.2365 18.5412C26.7381 18.5412 26.3181 18.6289 25.995 18.7996C25.6719 18.9704 25.4042 19.1827 25.2012 19.4273C25.0078 19.6635 24.8648 19.9368 24.7812 20.2304C24.7073 20.475 24.6565 20.7242 24.6381 20.9781H29.7381C29.6642 20.1796 29.3873 19.5889 29.0181 19.1735C28.6304 18.7627 28.0073 18.5412 27.2365 18.5412ZM15.7673 18.075C16.1689 17.7842 16.3627 17.3042 16.3627 16.6442C16.3765 16.3304 16.3119 16.0212 16.1735 15.7396C16.0489 15.5135 15.8642 15.3242 15.6381 15.1904C15.4036 15.0482 15.1432 14.9541 14.8719 14.9135C14.5765 14.8581 14.2765 14.8304 13.9812 14.835H10.7365V18.5135H14.2489C14.8535 18.5181 15.3658 18.3704 15.7673 18.075ZM16.3119 21.3981C15.8596 21.0519 15.255 20.8812 14.5027 20.8812H10.7273V25.2196H14.4289C14.775 25.2196 15.0935 25.1873 15.4027 25.1227C15.7119 25.0581 15.9889 24.9473 16.2242 24.7904C16.4596 24.6381 16.6489 24.4304 16.7919 24.1627C16.9304 23.895 16.9996 23.5535 16.9996 23.1427C16.9996 22.3258 16.7689 21.7489 16.3119 21.3981Z" fill="#1769FF"/>
</g>
<defs>
<clipPath id="clip0_206_1040">
<rect width="40" height="40" fill="white"/>
</clipPath>
</defs>
</svg>
