<svg width="30" height="30" viewBox="0 0 30 30" fill="none" xmlns="http://www.w3.org/2000/svg">
<path d="M10.125 30C12.816 30 15 27.76 15 25V20H10.125C7.434 20 5.25 22.24 5.25 25C5.25 27.76 7.434 30 10.125 30Z" fill="#0ACF83"/>
<path d="M5.25 15C5.25 12.24 7.434 10 10.125 10H15V20H10.125C7.434 20 5.25 17.76 5.25 15Z" fill="#A259FF"/>
<path d="M5.25 5C5.25 2.24 7.434 0 10.125 0H15V10H10.125C7.434 10 5.25 7.76 5.25 5Z" fill="#F24E1E"/>
<path d="M15 0H19.875C22.566 0 24.75 2.24 24.75 5C24.75 7.76 22.566 10 19.875 10H15V0Z" fill="#FF7262"/>
<path d="M24.75 15C24.75 17.76 22.566 20 19.875 20C17.184 20 15 17.76 15 15C15 12.24 17.184 10 19.875 10C22.566 10 24.75 12.24 24.75 15Z" fill="#1ABCFE"/>
</svg>
